PathFileType	4	(X/Y/Z)	C:/Users/opensim2020/Desktop/walking_exp_matlab/subject06_walking12_straigt_02.trc	
DataRate	CameraRate	NumFrames	NumMarkers	Units	OrigDataRate	OrigDataStartFrame	OrigNumFrames	
100.00	100.00	4	48	mm	100.00	1440	215	
Frame#	Time	LFHD			RFHD			LBHD			RBHD			C7			T10			CLAV			STRN			RBAK			LSHO			LUPA			LELB			LFRM			LWRA			LWRB			LFIN			RSHO			RUPA			RELB			RFRM			RWRA			RWRB			RFIN			LASI			RASI			LPSI			RPSI			LTHI			LKNE			LTIB			LANK			LHEE			LTOE			RTHI			RKNE			RTIB			RANK			RHEE			RTOE			*39			*40			*41			*42			*43			*44			*45			*46			*47			
		X1	Y1	Z1	X2	Y2	Z2	X3	Y3	Z3	X4	Y4	Z4	X5	Y5	Z5	X6	Y6	Z6	X7	Y7	Z7	X8	Y8	Z8	X9	Y9	Z9	X10	Y10	Z10	X11	Y11	Z11	X12	Y12	Z12	X13	Y13	Z13	X14	Y14	Z14	X15	Y15	Z15	X16	Y16	Z16	X17	Y17	Z17	X18	Y18	Z18	X19	Y19	Z19	X20	Y20	Z20	X21	Y21	Z21	X22	Y22	Z22	X23	Y23	Z23	X24	Y24	Z24	X25	Y25	Z25	X26	Y26	Z26	X27	Y27	Z27	X28	Y28	Z28	X29	Y29	Z29	X30	Y30	Z30	X31	Y31	Z31	X32	Y32	Z32	X33	Y33	Z33	X34	Y34	Z34	X35	Y35	Z35	X36	Y36	Z36	X37	Y37	Z37	X38	Y38	Z38	X39	Y39	Z39	X40	Y40	Z40	X41	Y41	Z41	X42	Y42	Z42	X43	Y43	Z43	X44	Y44	Z44	X45	Y45	Z45	X46	Y46	Z46	X47	Y47	Z47	X48	Y48	Z48	

1	0.000	1442.52100	1316.36340	1674.82654	1311.18018	1318.50403	1660.09570	1446.11292	1449.38184	1619.30017	1317.68066	1450.14441	1610.57227	1388.75183	1449.63794	1458.97180	1375.34265	1485.28540	1131.39563	1390.93359	1338.33911	1383.06287	1395.90894	1299.64685	1206.74670	1304.24158	1519.97461	1290.28796	1551.29272	1402.24646	1412.43018	1615.53857	1432.10291	1210.06885	1620.87817	1452.59595	1099.29248	1640.24792	1448.50989	948.54095	1599.72986	1397.98816	828.39777	1630.78662	1461.84973	829.33252	1631.88953	1431.39636	743.66034	1228.68872	1379.79773	1417.36047	1139.26404	1392.00647	1217.06372	1127.06519	1360.38086	1098.87012	1116.44360	1305.82666	992.09973	1161.03284	1202.79163	886.62360	1116.42041	1248.96582	866.97504	1120.39758	1185.76477	811.92450	1488.30725	1311.64807	972.41718	1269.96472	1308.76892	972.36383	1460.41711	1472.42273	995.96118	1291.62378	1461.10938	997.74890	1565.90857	1301.89954	670.84198	1548.12720	1242.93372	518.37054	1542.28613	1346.60437	289.99164	1507.86560	1399.65479	124.99866	1455.14795	1433.35120	116.69585	1532.89197	1275.65625	57.14983	1235.94788	1370.13391	633.50830	1267.16895	1372.72156	509.17145	1286.84082	1451.44031	251.55244	1345.41650	1490.59717	73.50143	1391.75171	1531.40369	51.48118	1342.42737	1339.94055	36.83371	1383.44653	1417.74072	1711.10596																								 
2	0.010	1443.81958	1306.81311	1673.92615	1312.41418	1309.06396	1659.45557	1447.35303	1439.79724	1618.29236	1318.87964	1440.63428	1609.82068	1389.65784	1440.00647	1458.18640	1375.91260	1475.73682	1130.56470	1391.61682	1328.75183	1382.16577	1396.07874	1290.12341	1205.87183	1304.74475	1510.48730	1289.69177	1552.06897	1392.50940	1411.30261	1615.95435	1424.93457	1209.32813	1620.83252	1447.09668	1098.91931	1639.31543	1445.93213	947.98029	1597.13513	1399.56763	826.31982	1629.63159	1462.24109	829.17828	1629.70056	1433.89233	742.79169	1229.56396	1370.32788	1416.83850	1139.66589	1381.43811	1216.83008	1127.08862	1348.41809	1099.05151	1117.01746	1291.60889	993.70844	1162.27283	1185.88330	891.29291	1117.61609	1231.34009	870.36041	1121.78101	1166.57410	816.95532	1488.31128	1301.80725	971.92175	1270.12427	1299.99036	971.34235	1461.34009	1462.57324	995.15796	1292.48474	1452.04932	996.81903	1566.90662	1290.81628	670.74487	1548.80200	1231.16223	518.43646	1543.83313	1324.64783	284.82123	1509.81555	1368.78931	117.09653	1457.59619	1402.63330	107.36273	1535.13684	1241.35571	56.60801	1236.74487	1363.42505	632.59747	1267.69824	1367.56287	508.26089	1287.08997	1448.96216	251.35126	1345.55151	1490.03992	73.58023	1391.70764	1531.31775	51.69013	1342.23303	1339.94275	36.95683	1384.89087	1408.26831	1710.24304																								 
3	0.020	1445.05261	1297.22827	1672.90747	1313.68945	1299.50281	1658.76819	1448.60535	1430.15442	1617.18933	1320.10437	1431.12634	1609.01660	1390.51379	1430.32385	1457.22864	1376.47437	1466.10120	1129.59839	1392.32532	1319.05640	1381.23865	1396.26685	1280.56982	1204.94604	1305.24744	1500.86340	1289.00659	1552.81519	1382.83484	1410.11816	1616.41650	1417.75562	1208.65015	1620.86670	1441.47974	1098.50171	1638.47144	1443.11890	947.51996	1594.77246	1400.21863	825.10742	1629.05054	1462.43323	829.52576	1627.38928	1435.75244	742.13947	1230.40808	1360.78247	1416.30334	1140.10254	1370.82568	1216.51208	1127.39478	1336.70471	1099.05994	1117.57556	1277.52271	995.28778	1163.51099	1169.33130	895.89355	1118.60742	1214.13037	873.68958	1123.17920	1148.06860	822.04156	1488.82532	1291.37329	971.46869	1270.32788	1290.89392	970.20270	1462.28320	1452.62415	994.22052	1293.45313	1442.84473	995.85431	1567.70691	1280.30298	670.16394	1549.66406	1219.98169	518.08954	1545.56299	1302.37720	279.49268	1511.79602	1337.58289	109.65800	1459.62976	1371.08752	98.13009	1536.59766	1206.83801	56.25355	1237.52942	1356.62793	631.72748	1268.12219	1362.44495	507.30298	1287.33325	1446.46997	251.19112	1345.56384	1489.69543	73.66898	1391.68201	1531.26270	51.93768	1342.25098	1339.79822	36.84163	1386.33374	1398.76050	1709.30896																								 
4	0.030	1446.31360	1287.64783	1671.78735	1314.93372	1289.96619	1657.90723	1449.85840	1420.45752	1615.97607	1321.42786	1421.62952	1608.10718	1391.37244	1420.62231	1456.19434	1377.11646	1456.42957	1128.54407	1393.02026	1309.36780	1380.16223	1396.49402	1270.87146	1203.90833	1305.78003	1491.15991	1288.14771	1553.62109	1373.15930	1408.88721	1616.87341	1410.56555	1207.93469	1620.81165	1435.73132	1098.08508	1637.61792	1440.01660	947.07050	1592.47253	1400.41821	824.07336	1628.16772	1461.88269	829.72028	1625.31470	1436.93140	741.56940	1231.29517	1351.27527	1415.59973	1140.52747	1360.19580	1216.10400	1127.53906	1325.01099	1099.17505	1118.10034	1263.49622	996.78351	1164.73071	1153.01477	900.36072	1119.72083	1197.29675	876.82166	1124.62683	1129.63171	827.03033	1488.70752	1281.69470	970.41406	1270.44360	1282.97888	968.91656	1463.25696	1442.57239	993.18164	1294.36548	1433.48413	994.85608	1568.61670	1270.32288	669.23737	1550.45874	1209.39441	517.35779	1547.19788	1279.91028	274.37036	1514.33582	1306.58704	103.17966	1462.05396	1339.20837	89.55626	1537.35425	1172.12488	56.22422	1238.31775	1349.78625	630.67303	1268.52808	1357.28162	506.25272	1287.69397	1444.03894	250.95895	1345.52441	1489.53406	73.81066	1391.67371	1531.23132	52.22187	1342.26147	1339.67139	36.71865	1387.76636	1389.20300	1708.24146																								 
